{
  "asset": {
    "generator": "Microsoft GLTF Exporter 2.8.3.41",
    "version": "2.0"
  },
  "accessors": [
    {
      "bufferView": 0,
      "componentType": 5125,
      "count": 21324,
      "type": "SCALAR",
      "byteOffset": 0
    },
    {
      "bufferView": 1,
      "componentType": 5126,
      "count": 10642,
      "type": "VEC3",
      "max": [
        4.084296226501465,
        9.602522850036621,
        0.8491857051849365
      ],
      "min": [
        -3.6330721378326416,
        -1.00002920627594,
        0
      ],
      "byteOffset": 0
    },
    {
      "bufferView": 2,
      "componentType": 5126,
      "count": 10642,
      "type": "VEC3",
      "byteOffset": 0
    },
    {
      "bufferView": 3,
      "componentType": 5126,
      "count": 10642,
      "type": "VEC2",
      "byteOffset": 0
    }
  ],
  "bufferViews": [
    {
      "buffer": 0,
      "byteOffset": 0,
      "byteLength": 85296,
      "target": 34963
    },
    {
      "buffer": 0,
      "byteOffset": 85296,
      "byteLength": 127704,
      "target": 34962,
      "byteStride": 12
    },
    {
      "buffer": 0,
      "byteOffset": 213000,
      "byteLength": 127704,
      "target": 34962,
      "byteStride": 12
    },
    {
      "buffer": 0,
      "byteOffset": 340704,
      "byteLength": 85136,
      "target": 34962,
      "byteStride": 8
    }
  ],
  "buffers": [
    {
      "name": "scene",
      "byteLength": 425840,
      "uri": "data:application/octet-stream;base64,"
    }
  ],
  "materials": [
    {
      "pbrMetallicRoughness": {
        "metallicFactor": 0,
        "roughnessFactor": 0.6000000238418579,
        "baseColorFactor": [
          0.509,
          0.083,
          0.75,
          0.55555
        ]
      },
      "doubleSided": true,
      "emissiveFactor": [
        0,
        0,
        0
      ],
      "alphaMode": "OPAQUE"
    }
  ],
  "meshes": [
    {
      "primitives": [
        {
          "attributes": {
            "NORMAL": 2,
            "POSITION": 1,
            "TEXCOORD_0": 3
          },
          "indices": 0,
          "material": 0,
          "mode": 4
        }
      ]
    }
  ],
  "nodes": [
    {
      "children": [
        1
      ],
      "rotation": [
        -0.7071067690849304,
        0,
        0,
        0.7071067690849304
      ],
      "name": "Sketchfab_model",
      "translation": [
        0,
        0,
        0
      ],
      "scale": [
        1,
        1,
        1
      ]
    },
    {
      "children": [
        2
      ],
      "rotation": [
        0.7071067690849304,
        0,
        0,
        0.7071067690849304
      ],
      "scale": [
        0.009999999776482582,
        0.009999999776482582,
        0.009999999776482582
      ],
      "name": "ac539343b28047eb9badeef8aa8c3d01.fbx",
      "translation": [
        0,
        0,
        0
      ]
    },
    {
      "children": [
        3
      ],
      "name": "RootNode"
    },
    {
      "children": [
        4
      ],
      "translation": [
        -16.21672821044922,
        79.09757995605469,
        -47.19856262207031
      ],
      "rotation": [
        2.1855697696082643e-8,
        0,
        0,
        1
      ],
      "scale": [
        109.41986846923828,
        109.41986846923828,
        109.41986846923828
      ],
      "name": "question mark"
    },
    {
      "mesh": 0,
      "name": "question mark__0"
    }
  ],
  "scenes": [
    {
      "nodes": [
        0
      ]
    }
  ],
  "scene": 0
}
