<svg width="539" height="292" viewBox="0 0 539 292" fill="none" xmlns="http://www.w3.org/2000/svg">
<path d="M133.146 184.069L63.6458 120.985L26.2134 143.53L92.7129 204.03L133.146 184.069Z" fill="url(#paint0_linear_251_25)"/>
<path d="M112.646 208.569L133.146 184.069L92.7129 204.03L72.7129 229.53L112.646 208.569Z" fill="url(#paint1_linear_251_25)"/>
<path d="M144.146 240.069L112.646 208.569L72.7129 229.53L107.213 261.53L135.713 244.969L144.146 240.069Z" fill="url(#paint2_linear_251_25)"/>
<path d="M63.6458 120.985L85.1459 94.8667L49.2129 115.03L26.2134 143.53L63.6458 120.985Z" fill="url(#paint3_linear_251_25)"/>
<path fill-rule="evenodd" clip-rule="evenodd" d="M165.146 212.569L183.146 228.069L205.146 200.069L189.646 184.069L256.845 94.8666L220.146 63.5686L85.1459 94.8667L63.6458 120.985L133.146 184.069L112.646 208.569L144.146 240.069L165.146 212.569ZM164.845 141.069L149.845 158.569L138.029 146.753L126.213 134.937L118.345 127.069L153.845 117.569C158.103 116.136 188.969 108.274 191.845 107.069C190.368 108.782 185.397 115.569 183.345 118.465C181.225 120.991 177.965 124.543 175.845 127.069C173.725 129.594 166.19 139.371 164.845 141.069Z" fill="url(#paint4_linear_251_25)"/>
<path d="M191.845 107.069C188.969 108.274 158.103 116.136 153.845 117.569L118.345 127.069L126.213 134.937L158.213 127.069L191.845 107.069Z" fill="url(#paint5_linear_251_25)"/>
<path d="M149.845 158.569L164.845 141.069C166.19 139.371 173.725 129.594 175.845 127.069C177.965 124.543 181.225 120.991 183.345 118.465C185.397 115.569 190.368 108.782 191.845 107.069L158.213 127.069L138.029 146.753L149.845 158.569Z" fill="url(#paint6_linear_251_25)"/>
<path d="M183.146 228.069L165.146 212.569L144.146 240.069L135.713 244.969L144.146 252.03L183.146 228.069Z" fill="url(#paint7_linear_251_25)"/>
<path d="M165.244 212.455L165.123 212.351L165.027 212.478L144.131 239.841L112.849 208.56L133.261 184.165L133.353 184.054L133.247 183.958L63.8525 120.97L85.2293 95.0013L220.106 63.7318L256.64 94.8892L189.526 183.978L189.449 184.081L189.538 184.173L204.947 200.079L183.125 227.853L165.244 212.455ZM143.902 240.037L135.728 244.786L135.638 244.839L107.233 261.344L72.9704 229.564L112.618 208.753L143.902 240.037ZM132.574 184.518L112.55 208.45L73.2628 229.072L92.8099 204.149L132.574 184.518ZM132.882 184.032L92.7382 203.85L26.4633 143.554L63.6276 121.172L132.882 184.032ZM63.5464 120.87L26.8634 142.963L49.3115 115.146L84.5217 95.3889L63.5464 120.87ZM135.973 244.991L144.221 240.198L144.247 240.183L144.265 240.16L165.168 212.786L182.892 228.048L144.159 251.845L135.973 244.991ZM149.739 158.675L149.854 158.789L149.959 158.666L164.959 141.166L164.959 141.166L164.963 141.162C165.347 140.676 166.234 139.535 167.355 138.092C170.166 134.476 174.446 128.969 175.96 127.165C177.018 125.904 178.362 124.386 179.707 122.866L179.709 122.865C181.053 121.346 182.399 119.826 183.46 118.562L183.46 118.562L183.468 118.552C185.52 115.654 190.488 108.873 191.959 107.167L191.787 106.93C191.079 107.227 188.624 107.941 185.253 108.872C181.889 109.8 177.629 110.941 173.324 112.088C172.497 112.309 171.668 112.53 170.843 112.75C163.098 114.813 155.738 116.774 153.802 117.425L118.306 126.924L118.055 126.991L118.239 127.175L125.919 134.855L126.107 135.043L137.923 146.859L138.028 146.964L149.739 158.675ZM149.837 158.348L138.243 146.754L158.305 127.188L191.183 107.637C189.276 110.02 185.072 115.768 183.226 118.374C182.169 119.634 180.827 121.15 179.483 122.668L179.481 122.669C178.137 124.188 176.791 125.708 175.73 126.972C174.212 128.781 169.919 134.305 167.108 137.921C165.993 139.356 165.111 140.491 164.729 140.973C164.729 140.974 164.728 140.975 164.728 140.975L149.837 158.348ZM158.156 126.928L126.26 134.771L118.635 127.146L153.884 117.713L153.884 117.714L153.893 117.711C155.812 117.065 163.17 115.104 170.93 113.037C171.751 112.818 172.577 112.598 173.402 112.378C177.706 111.231 181.967 110.09 185.333 109.161C187.525 108.556 189.343 108.038 190.545 107.667L158.156 126.928Z" stroke="#237EE7" stroke-width="0.3"/>
<path d="M366.626 113.948C373.851 127.937 379.137 141.065 382.484 153.332C385.79 165.519 386.823 176.817 385.581 187.225C384.424 197.589 380.637 206.996 374.221 215.444C373.513 216.377 372.769 217.297 371.988 218.204C365.694 225.519 357.038 232.022 346.019 237.713C330.601 245.676 319.746 250.035 306.235 248.053C292.683 245.99 280.12 239.541 268.546 228.704C257.015 217.744 246.426 202.925 236.779 184.246C227.05 165.408 220.515 148.895 217.831 133.365C215.19 117.713 216.909 103.787 222.988 91.5854C226.479 84.5784 231.677 78.184 238.581 72.4025C243.7 68.1166 249.756 64.1675 256.75 60.5551C272.169 52.5918 286.612 49.663 300.08 51.7687C313.591 53.7515 326.175 60.2407 337.831 71.2367C349.446 82.1531 356.856 95.031 366.626 113.948ZM286.119 159.263C291.989 170.629 297.337 179.95 302.161 187.225C307.07 194.456 311.752 199.388 316.207 202.021C317.162 202.554 318.12 202.976 319.081 203.288C322.647 204.445 326.255 204.08 329.905 202.195C334.539 199.802 337.092 196.067 337.565 190.989C337.997 185.833 336.706 179.2 333.691 171.091C330.636 162.902 326.153 153.085 320.241 141.639C314.289 130.114 308.858 120.736 303.949 113.505C299.041 106.273 294.359 101.342 289.904 98.7088C285.408 95.9966 280.843 95.837 276.209 98.2304C271.575 100.624 269.02 104.46 268.545 109.74C268.306 112.596 268.602 115.917 269.433 119.704C270.102 122.753 271.118 126.105 272.481 129.758C275.62 137.903 280.166 147.738 286.119 159.263Z" fill="url(#paint8_linear_251_25)"/>
<path d="M346.019 237.713C330.601 245.676 319.746 250.035 306.235 248.053C292.683 245.99 280.12 239.541 268.546 228.704C257.015 217.744 246.426 202.925 236.779 184.246C227.05 165.408 220.515 148.895 217.831 133.365C215.19 117.713 216.909 103.787 222.988 91.5854C226.479 84.5784 231.677 78.184 238.581 72.4025C222.988 82.5 221.266 84.4387 212.628 96.5005C201.193 114.001 195.692 142.297 212.628 190C233.693 234.297 250.165 242.698 274.645 255.001C299.92 263.157 309.18 260.357 332.644 249.501C356.033 234.691 357.966 234.501 371.988 218.204C365.694 225.519 357.038 232.022 346.019 237.713Z" fill="url(#paint9_linear_251_25)"/>
<path d="M329.905 202.195C334.539 199.802 337.092 196.067 337.565 190.989C337.997 185.833 336.706 179.2 333.691 171.091C330.636 162.902 326.153 153.085 320.241 141.639C314.289 130.114 308.858 120.736 303.949 113.505C299.041 106.273 294.359 101.342 289.904 98.7088C285.408 95.9966 280.843 95.837 276.209 98.2304C271.575 100.624 269.02 104.46 268.545 109.74C268.306 112.596 268.602 115.917 269.433 119.704C277.311 119.941 280.757 121.901 285.581 128.204C299.961 144.736 306.625 157.619 317.081 184.246C319.704 193.053 319.621 196.831 319.081 203.288C322.647 204.445 326.255 204.08 329.905 202.195Z" fill="url(#paint10_linear_251_25)"/>
<path d="M319.241 203.181C319.505 200.008 319.655 197.466 319.417 194.636C319.176 191.769 318.538 188.612 317.225 184.203L317.226 184.203L317.221 184.191C306.762 157.559 300.091 144.658 285.698 128.109C283.282 124.953 281.199 122.869 278.723 121.547C276.269 120.237 273.444 119.684 269.554 119.558C268.745 115.829 268.46 112.562 268.695 109.753C269.165 104.524 271.69 100.733 276.278 98.3637C280.865 95.9944 285.375 96.1517 289.826 98.8372L289.827 98.8379C294.254 101.454 298.921 106.365 303.825 113.589C308.729 120.814 314.157 130.186 320.108 141.708C326.018 153.151 330.498 162.962 333.551 171.143M319.241 203.181L333.551 171.143M319.241 203.181C322.728 204.28 326.257 203.911 329.836 202.062C334.426 199.692 336.948 196.001 337.416 190.977M319.241 203.181L337.416 190.977M333.551 171.143C333.551 171.143 333.551 171.143 333.551 171.143L333.691 171.091L333.551 171.143ZM337.416 190.977C337.416 190.977 337.416 190.977 337.416 190.977L337.565 190.989L337.416 190.976C337.416 190.976 337.416 190.976 337.416 190.977ZM306.213 248.201L306.213 248.201C319.775 250.191 330.667 245.81 346.088 237.846C354.602 233.448 361.712 228.564 367.414 223.193C362.946 228.159 359.685 231.279 355.737 234.291C351.821 237.278 347.231 240.157 340.117 244.619C337.873 246.027 335.377 247.593 332.572 249.369C320.843 254.795 312.684 258.198 304.305 259.232C295.931 260.265 287.324 258.934 274.702 254.861C262.465 248.712 252.249 243.545 242.458 234.389C232.667 225.232 223.293 212.077 212.766 189.943C195.845 142.274 201.353 114.033 212.751 96.5852C217.07 90.5544 219.652 87.0667 223.099 83.8242C226.263 80.8473 230.16 78.074 236.806 73.7355C230.718 79.1435 226.066 85.0709 222.854 91.5185C216.759 103.753 215.038 117.712 217.683 133.39L217.683 133.391C220.371 148.942 226.913 165.471 236.646 184.315C246.298 203.004 256.896 217.838 268.442 228.813L268.443 228.813C280.036 239.668 292.626 246.133 306.213 248.201ZM371.874 218.106C365.596 225.403 356.956 231.895 345.95 237.579C330.534 245.542 319.717 249.879 306.257 247.904C292.739 245.847 280.204 239.414 268.649 228.595C257.134 217.649 246.554 202.845 236.912 184.177C227.186 165.346 220.659 148.848 217.979 133.34C215.343 117.714 217.06 103.821 223.122 91.6523C226.602 84.6671 231.785 78.2892 238.675 72.5194C238.676 72.5188 238.677 72.5181 238.678 72.5175C243.786 68.2398 249.833 64.2966 256.819 60.6884C272.217 52.7357 286.628 49.8173 300.057 51.9169L300.058 51.9171C313.534 53.8947 326.09 60.3672 337.728 71.3458L337.728 71.346C349.322 82.2431 356.722 95.1 366.493 114.017C373.714 127.999 378.996 141.117 382.34 153.371C385.642 165.544 386.671 176.822 385.432 187.207L385.432 187.208C384.278 197.545 380.501 206.926 374.101 215.354C373.395 216.283 372.653 217.201 371.874 218.106ZM337.714 191.003L337.715 191.002C338.149 185.813 336.85 179.156 333.832 171.039L333.832 171.038C330.774 162.842 326.288 153.019 320.375 141.571C314.421 130.042 308.987 120.659 304.073 113.421C299.16 106.182 294.463 101.229 289.981 98.5801C285.441 95.8414 280.821 95.6797 276.14 98.0972C271.46 100.515 268.876 104.397 268.396 109.727L268.396 109.727C268.159 112.555 268.444 115.83 269.245 119.548L269.245 119.548L269.286 119.734C269.286 119.735 269.286 119.735 269.286 119.736C269.957 122.794 270.975 126.152 272.34 129.81L272.341 129.812C275.483 137.964 280.031 147.804 285.985 159.332C291.857 170.701 297.208 180.027 302.036 187.308L302.037 187.309C306.951 194.548 311.648 199.5 316.131 202.15L316.134 202.152C317.097 202.689 318.064 203.115 319.035 203.43C319.035 203.431 319.036 203.431 319.036 203.431L319.215 203.489L319.215 203.488C322.764 204.588 326.353 204.199 329.974 202.329C334.652 199.912 337.237 196.133 337.714 191.003Z" stroke="#237EE7" stroke-width="0.3"/>
<path d="M378.945 221.29L448.446 85.7895L415.446 71.7895L344.946 205.29L378.945 221.29Z" fill="url(#paint11_linear_251_25)"/>
<path d="M381.946 258.29L378.945 221.29L344.946 205.29L347.446 242.79L381.946 258.29Z" fill="url(#paint12_linear_251_25)"/>
<path d="M448.446 85.7895L498.8 78.7967L467.446 64.7895L415.446 71.7895L448.446 85.7895Z" fill="url(#paint13_linear_251_25)"/>
<path fill-rule="evenodd" clip-rule="evenodd" d="M513.426 235.369L534.913 233.362L531.253 194.185L509.766 196.193L508.581 183.5L498.8 78.7967L448.446 85.7895L378.945 221.29L381.946 258.29L438.003 249L469.446 243.79L472.446 279.79L516.937 272.951L513.426 235.369ZM466.946 192.79L467.446 203.29L424.446 211.29L436.446 189.199L446.446 170.79C448.428 167.032 449.762 164.49 450.946 161.79C452.121 159.001 459.628 143.931 460.946 139.79L461.946 139.79C461.873 139.975 463.417 154.559 463.446 156.79C463.555 158.923 464.326 164.086 464.446 167.29C464.646 170.396 465.746 179.183 465.946 182.29C466.146 185.396 466.756 190.753 466.946 192.79Z" fill="url(#paint14_linear_251_25)"/>
<path d="M472.446 279.79L469.446 243.79L438.003 249L439.5 264.5L472.446 279.79Z" fill="url(#paint15_linear_251_25)"/>
<path d="M509.766 196.193L531.253 194.185L508.581 183.5L509.766 196.193Z" fill="url(#paint16_linear_251_25)"/>
<path d="M467.446 203.29L466.946 192.79C466.756 190.753 466.146 185.396 465.946 182.29C465.746 179.183 464.646 170.396 464.446 167.29C464.326 164.086 463.555 158.923 463.446 156.79C463.417 154.559 461.873 139.975 461.946 139.79L460.946 139.79C459.628 143.931 452.121 159.001 450.946 161.79C449.762 164.49 448.428 167.032 446.446 170.79L436.446 189.199L467.446 203.29Z" fill="url(#paint17_linear_251_25)"/>
<path d="M424.446 211.29L467.446 203.29L436.446 189.199L424.446 211.29Z" fill="url(#paint18_linear_251_25)"/>
<defs>
<linearGradient id="paint0_linear_251_25" x1="55.7129" y1="173.53" x2="77.7129" y2="148.03" gradientUnits="userSpaceOnUse">
<stop stop-color="#00489A"/>
<stop offset="1" stop-color="#217FEB"/>
</linearGradient>
<linearGradient id="paint1_linear_251_25" x1="114.713" y1="188.03" x2="101.713" y2="231.53" gradientUnits="userSpaceOnUse">
<stop stop-color="#2180EB"/>
<stop offset="1" stop-color="#083E7B"/>
</linearGradient>
<linearGradient id="paint2_linear_251_25" x1="109.213" y1="253.53" x2="125.713" y2="220.53" gradientUnits="userSpaceOnUse">
<stop stop-color="#0B396F"/>
<stop offset="1" stop-color="#2D7EDB"/>
</linearGradient>
<linearGradient id="paint3_linear_251_25" x1="28.2129" y1="142.53" x2="69.2129" y2="110.53" gradientUnits="userSpaceOnUse">
<stop stop-color="#00489A"/>
<stop offset="1" stop-color="#1E86FC"/>
</linearGradient>
<linearGradient id="paint4_linear_251_25" x1="143.5" y1="239" x2="170.5" y2="114.5" gradientUnits="userSpaceOnUse">
<stop stop-color="#0E3F77"/>
<stop offset="1" stop-color="#2D7EDB"/>
</linearGradient>
<linearGradient id="paint5_linear_251_25" x1="107" y1="133.5" x2="270" y2="101" gradientUnits="userSpaceOnUse">
<stop stop-color="#0B396F"/>
<stop offset="1" stop-color="#2D7EDB"/>
</linearGradient>
<linearGradient id="paint6_linear_251_25" x1="146.5" y1="181.5" x2="169.5" y2="108" gradientUnits="userSpaceOnUse">
<stop stop-color="#0B396F"/>
<stop offset="1" stop-color="#2D7EDB"/>
</linearGradient>
<linearGradient id="paint7_linear_251_25" x1="132.5" y1="230" x2="170" y2="237" gradientUnits="userSpaceOnUse">
<stop stop-color="#0B396F"/>
<stop offset="1" stop-color="#2D7EDB"/>
</linearGradient>
<linearGradient id="paint8_linear_251_25" x1="343.645" y1="225.501" x2="259.645" y2="66.5006" gradientUnits="userSpaceOnUse">
<stop stop-color="#00489A"/>
<stop offset="1" stop-color="#257EE3"/>
</linearGradient>
<linearGradient id="paint9_linear_251_25" x1="287.648" y1="259.723" x2="198.13" y2="116.163" gradientUnits="userSpaceOnUse">
<stop stop-color="#00489A"/>
<stop offset="1" stop-color="#3A94FC"/>
</linearGradient>
<linearGradient id="paint10_linear_251_25" x1="342.184" y1="222.618" x2="259.664" y2="66.3606" gradientUnits="userSpaceOnUse">
<stop offset="0.09375" stop-color="#61A3EF"/>
<stop offset="0.40625" stop-color="#257EE3"/>
<stop offset="0.737381" stop-color="#00489A"/>
</linearGradient>
<linearGradient id="paint11_linear_251_25" x1="343.445" y1="234.79" x2="434.945" y2="83.7895" gradientUnits="userSpaceOnUse">
<stop stop-color="#0E4788"/>
<stop offset="1" stop-color="#328AEF"/>
</linearGradient>
<linearGradient id="paint12_linear_251_25" x1="347.945" y1="249.29" x2="346.445" y2="211.79" gradientUnits="userSpaceOnUse">
<stop stop-color="#0E4788"/>
<stop offset="1" stop-color="#328AEF"/>
</linearGradient>
<linearGradient id="paint13_linear_251_25" x1="373.945" y1="185.29" x2="470.445" y2="59.7895" gradientUnits="userSpaceOnUse">
<stop stop-color="#0E4788"/>
<stop offset="1" stop-color="#328AEF"/>
</linearGradient>
<linearGradient id="paint14_linear_251_25" x1="516.945" y1="278.29" x2="434.945" y2="83.7895" gradientUnits="userSpaceOnUse">
<stop stop-color="#0E4788"/>
<stop offset="1" stop-color="#328AEF"/>
</linearGradient>
<linearGradient id="paint15_linear_251_25" x1="458" y1="247" x2="458.5" y2="263.5" gradientUnits="userSpaceOnUse">
<stop stop-color="#0E4788"/>
<stop offset="1" stop-color="#328AEF"/>
</linearGradient>
<linearGradient id="paint16_linear_251_25" x1="343.445" y1="234.79" x2="434.945" y2="83.7895" gradientUnits="userSpaceOnUse">
<stop stop-color="#0E4788"/>
<stop offset="1" stop-color="#328AEF"/>
</linearGradient>
<linearGradient id="paint17_linear_251_25" x1="458" y1="202.5" x2="434.945" y2="83.7895" gradientUnits="userSpaceOnUse">
<stop stop-color="#0E4788"/>
<stop offset="1" stop-color="#328AEF"/>
</linearGradient>
<linearGradient id="paint18_linear_251_25" x1="343.445" y1="234.79" x2="445" y2="197.5" gradientUnits="userSpaceOnUse">
<stop stop-color="#0E4788"/>
<stop offset="1" stop-color="#328AEF"/>
</linearGradient>
</defs>
</svg>
