<svg width="98" height="53" viewBox="0 0 98 53" fill="none" xmlns="http://www.w3.org/2000/svg">
<path fill-rule="evenodd" clip-rule="evenodd" d="M42.3634 2L34 6.90871V38.0684L43.2556 42.8143L43.2927 10.0389H57.1603V2H42.3634Z" fill="#0071F2"/>
<path fill-rule="evenodd" clip-rule="evenodd" d="M67.6466 18.8865L59.2831 13.9778H54.5111V22.8704H58.3539V45.5556H55.6L46.8889 51H59.2831L67.6466 46.1624V18.8865Z" fill="#0071F2"/>
<path d="M45 35H53V45.3143L45 50V35Z" fill="white"/>
<path d="M53 14H45V23H53V14Z" fill="white"/>
<path d="M1.04001 26.422L2.56101 25.525H5.25201V26.994H2.73001V31.479H5.20001V33H2.56101L1.04001 32.116V26.422ZM8.35901 30.582V31.479H5.88901V33H8.52801L10.049 32.116V30.582H8.35901ZM10.049 27.904V26.422L8.52801 25.525H5.83701V26.994H8.35901V27.904H10.049ZM12.123 26.422L13.644 25.525H16.335V26.994H13.761V31.479H16.283V33H13.644L12.123 32.116V26.422ZM21.08 26.422L19.611 25.525H16.92V26.994H19.442V31.479H16.92V33H19.611L21.08 32.116V26.422ZM23.4152 25.525H27.5752V26.994H25.0532V31.479H27.5752V33H23.4152V25.525ZM32.3722 26.422L30.9032 25.525H28.2122V26.994H30.7342V31.479H28.2122V33H30.9032L32.3722 32.116V26.422ZM34.7141 25.525H38.8741V27.059H36.3521V28.528H38.8741V30.01H36.3521V31.531H38.8221V33H34.7141V25.525ZM39.5111 31.531V33H43.6711V31.531H39.5111ZM43.6711 27.059V25.525H39.4591V27.059H43.6711ZM41.5651 30.01V28.528H39.4591V30.01H41.5651ZM45.1054 26.422L46.6264 25.525H49.3174V26.994H46.7954V31.479H49.2654V33H46.6264L45.1054 32.116V26.422ZM52.4244 30.582V31.479H49.9544V33H52.5934L54.1144 32.116V30.582H52.4244ZM54.1144 27.904V26.422L52.5934 25.525H49.9024V26.994H52.4244V27.904H54.1144ZM56.4484 25.525H60.6084V27.059H58.0864V28.528H60.6084V30.049H58.0864V33H56.4484V25.525ZM65.4054 33V29.906L64.1834 29.269L65.4054 28.684V26.422L63.8714 25.525H61.1934V27.059H63.7674V28.528H61.1934V30.049H63.7674V33H65.4054ZM67.3603 26.422L68.8423 25.525H71.5203V26.994H68.9983V28.528H71.5203V30.01H68.9983V33H67.3603V26.422ZM76.3173 26.422L74.7833 25.525H72.1053V26.994H74.6793V28.528H72.1053V30.01H74.6793V33H76.3173V26.422ZM78.6525 25.525H82.8125V27.059H80.2905V28.528H82.8125V30.049H80.2905V33H78.6525V25.525ZM87.6095 27.059V25.525H83.4495V27.059H87.6095ZM85.5555 30.049V28.528H83.4495V30.049H85.5555ZM97.0843 26.994H93.3403V33H91.5463V26.994H88.1273V25.525H97.0843V26.994Z" fill="white"/>
</svg>
